name: Tandy-8044316A (TRS-80 Model III and Model 4)
spacing: character-cell
cell-size: 8x8
converter: monobit v0.40
source-format: raw
source-name: 8044316a.u36


# [ ] SPACE
0x00:
u+0020:
    ........
    ........
    ........
    ........
    ........
    ........
    ........
    ........


# [£] POUND SIGN
0x01:
u+00a3:
    ....@@..
    ...@..@.
    ...@....
    .@@@@@..
    ...@....
    ...@..@.
    .@@@@@..
    ........


# [|] VERTICAL LINE
0x02:
u+007c:
    ....@...
    ....@...
    ....@...
    ....@...
    ....@...
    ....@...
    ....@...
    ........


# [é] LATIN SMALL LETTER E WITH ACUTE
0x03:
u+00e9:
    .....@..
    ....@...
    ..@@@@..
    .@....@.
    .@@@@@@.
    .@......
    ..@@@@..
    ........


# [Ü] LATIN CAPITAL LETTER U WITH DIAERESIS
0x04:
u+00dc:
    ..@..@..
    ........
    .@....@.
    .@....@.
    .@....@.
    .@....@.
    ..@@@@..
    ........


# [Å] LATIN CAPITAL LETTER A WITH RING ABOVE
0x05:
u+00c5:
    ....@...
    ...@.@..
    ....@...
    ...@.@..
    ..@...@.
    ..@@@@@.
    ..@...@.
    ........


# [¬] NOT SIGN
0x06:
u+00ac:
    ........
    ........
    ........
    .@@@@@@.
    ......@.
    ......@.
    ........
    ........


# [ö] LATIN SMALL LETTER O WITH DIAERESIS
0x07:
u+00f6:
    ...@.@..
    ........
    ...@@@..
    ..@...@.
    ..@...@.
    ..@...@.
    ...@@@..
    ........


# [ø] LATIN SMALL LETTER O WITH STROKE
0x08:
u+00f8:
    ...@@@.@
    ..@...@.
    ..@..@@.
    ..@.@.@.
    ..@@..@.
    ..@...@.
    .@.@@@..
    ........


# [ù] LATIN SMALL LETTER U WITH GRAVE
0x09:
u+00f9:
    ...@....
    ....@...
    .@....@.
    .@....@.
    .@....@.
    .@...@@.
    ..@@@.@.
    ........


# [ñ] LATIN SMALL LETTER N WITH TILDE
0x0a:
u+00f1:
    ..@@..@.
    .@..@@..
    ........
    ..@.@@..
    ..@@..@.
    ..@...@.
    ..@...@.
    ........


# [`] GRAVE ACCENT
0x0b:
u+0060:
    ....@...
    .....@..
    ......@.
    ........
    ........
    ........
    ........
    ........


# [ã] LATIN SMALL LETTER A WITH TILDE
0x0c:
u+00e3:
    ..@@@...
    ........
    ..@@@...
    .....@..
    ..@@@@..
    .@...@..
    ..@@@.@.
    ........


# [␍] SYMBOL FOR CARRIAGE RETURN
0x0d:
u+240d:
    ..@@@@@.
    .@@@@.@.
    .@...@..
    .@...@..
    .@@@@...
    .@..@...
    .@...@..
    ........


# [Ä] LATIN CAPITAL LETTER A WITH DIAERESIS
0x0e:
u+00c4:
    ...@.@..
    ........
    ....@...
    ...@.@..
    ..@...@.
    ..@@@@@.
    ..@...@.
    ........


# [Ã] LATIN CAPITAL LETTER A WITH TILDE
0x0f:
u+00c3:
    ..@@..@.
    .@..@@..
    ....@...
    ...@.@..
    ..@...@.
    ..@@@@@.
    ..@...@.
    ........


# [Ñ] LATIN CAPITAL LETTER N WITH TILDE
0x10:
u+00d1:
    ..@@..@.
    .@..@@..
    ..@...@.
    ..@@..@.
    ..@.@.@.
    ..@..@@.
    ..@...@.
    ........


# [Ö] LATIN CAPITAL LETTER O WITH DIAERESIS
0x11:
u+00d6:
    ........
    ...@.@..
    ...@@@..
    ..@...@.
    ..@...@.
    ..@...@.
    ...@@@..
    ........


# [Ø] LATIN CAPITAL LETTER O WITH STROKE
0x12:
u+00d8:
    ....@..@
    ...@.@@.
    ..@..@@.
    ..@.@.@.
    ..@@..@.
    ..@@.@..
    .@..@...
    ........


# [Õ] LATIN CAPITAL LETTER O WITH TILDE
0x13:
u+00d5:
    ..@@..@.
    .@..@@..
    ........
    ..@@@@..
    .@....@.
    .@....@.
    ..@@@@..
    ........


# [ß] LATIN SMALL LETTER SHARP S
0x14:
u+00df:
    ..@@@@..
    ..@...@.
    ..@...@.
    ..@@@@..
    ..@...@.
    ..@...@.
    .@@@@@..
    ........


# [ü] LATIN SMALL LETTER U WITH DIAERESIS
0x15:
u+00fc:
    ..@..@..
    ........
    .@....@.
    .@....@.
    .@....@.
    .@...@@.
    ..@@@.@.
    ........


# [õ] LATIN SMALL LETTER O WITH TILDE
0x16:
u+00f5:
    ..@@..@.
    .@..@@..
    ........
    ...@@...
    ..@..@..
    ..@..@..
    ...@@...
    ........


# [æ] LATIN SMALL LETTER AE
0x17:
u+00e6:
    ...@@@..
    ..@.@.@.
    ....@.@.
    ...@@@..
    ..@.@...
    ..@.@.@.
    ...@@@..
    ........


# [ä] LATIN SMALL LETTER A WITH DIAERESIS
0x18:
u+00e4:
    ..@.@...
    ........
    ..@@@...
    .....@..
    ..@@@@..
    .@...@..
    ..@@@.@.
    ........


# [à] LATIN SMALL LETTER A WITH GRAVE
0x19:
u+00e0:
    ..@.....
    ...@....
    ..@@@...
    .....@..
    ..@@@@..
    .@...@..
    ..@@@.@.
    ........


# [å] LATIN SMALL LETTER A WITH RING ABOVE
0x1a:
u+00e5:
    ...@....
    ........
    ..@@@...
    .....@..
    ..@@@@..
    .@...@..
    ..@@@.@.
    ........


# [§] SECTION SIGN
0x1b:
u+00a7:
    ..@@@@..
    .@......
    .@@@@@..
    .@....@.
    ..@@@@@.
    ......@.
    ..@@@@..
    ........


# [É] LATIN CAPITAL LETTER E WITH ACUTE
0x1c:
u+00c9:
    .....@..
    ....@...
    ..@@@@@.
    ..@.....
    ..@@@@@.
    ..@.....
    ..@@@@@.
    ........


# [Æ] LATIN CAPITAL LETTER AE
0x1d:
u+00c6:
    ....@...
    ...@@@@.
    ..@..@..
    ..@..@@.
    ..@@@@..
    ..@..@..
    ..@..@@.
    ........


# [ç] LATIN SMALL LETTER C WITH CEDILLA
0x1e:
u+00e7:
    ...@@@..
    ..@...@.
    ..@.....
    ..@.....
    ..@...@.
    ...@@@..
    ....@...
    ...@....


# [˜] SMALL TILDE
0x1f:
u+02dc:
    ........
    ........
    ..@@..@.
    .@..@@..
    ........
    ........
    ........
    ........


# [ ] SPACE
0x20:
u+0020:
    ........
    ........
    ........
    ........
    ........
    ........
    ........
    ........


# [!] EXCLAMATION MARK
0x21:
u+0021:
    ....@...
    ....@...
    ....@...
    ....@...
    ....@...
    ........
    ....@...
    ........


# ["] QUOTATION MARK
0x22:
u+0022:
    ..@..@..
    ..@..@..
    ..@..@..
    ........
    ........
    ........
    ........
    ........


# [#] NUMBER SIGN
0x23:
u+0023:
    ..@..@..
    ..@..@..
    .@@@@@@.
    ..@..@..
    .@@@@@@.
    ..@..@..
    ..@..@..
    ........


# [$] DOLLAR SIGN
0x24:
u+0024:
    ....@...
    ...@@@@.
    ..@.@...
    ...@@@..
    ....@.@.
    ..@@@@..
    ....@...
    ........


# [%] PERCENT SIGN
0x25:
u+0025:
    ........
    .@@...@.
    .@@..@..
    ....@...
    ...@....
    ..@..@@.
    .@...@@.
    ........


# [&] AMPERSAND
0x26:
u+0026:
    ..@@....
    .@..@...
    .@..@...
    ..@@....
    .@..@.@.
    .@...@..
    ..@@@.@.
    ........


# ['] APOSTROPHE
0x27:
u+0027:
    .....@..
    ....@...
    ...@....
    ........
    ........
    ........
    ........
    ........


# [(] LEFT PARENTHESIS
0x28:
u+0028:
    .....@..
    ....@...
    ...@....
    ...@....
    ...@....
    ....@...
    .....@..
    ........


# [)] RIGHT PARENTHESIS
0x29:
u+0029:
    ..@.....
    ...@....
    ....@...
    ....@...
    ....@...
    ...@....
    ..@.....
    ........


# [*] ASTERISK
0x2a:
u+002a:
    ....@...
    ..@.@.@.
    ...@@@..
    ..@@@@@.
    ...@@@..
    ..@.@.@.
    ....@...
    ........


# [+] PLUS SIGN
0x2b:
u+002b:
    ........
    ....@...
    ....@...
    ..@@@@@.
    ....@...
    ....@...
    ........
    ........


# [,] COMMA
0x2c:
u+002c:
    ........
    ........
    ........
    ........
    ........
    ....@...
    ....@...
    ...@....


# [-] HYPHEN-MINUS
0x2d:
u+002d:
    ........
    ........
    ........
    .@@@@@@.
    ........
    ........
    ........
    ........


# [.] FULL STOP
0x2e:
u+002e:
    ........
    ........
    ........
    ........
    ........
    ........
    ....@...
    ........


# [/] SOLIDUS
0x2f:
u+002f:
    ........
    ......@.
    .....@..
    ....@...
    ...@....
    ..@.....
    .@......
    ........


# [0] DIGIT ZERO
0x30:
u+0030:
    ..@@@@..
    .@....@.
    .@...@@.
    .@.@@.@.
    .@@...@.
    .@....@.
    ..@@@@..
    ........


# [1] DIGIT ONE
0x31:
u+0031:
    ....@...
    ...@@...
    ..@.@...
    ....@...
    ....@...
    ....@...
    ..@@@@@.
    ........


# [2] DIGIT TWO
0x32:
u+0032:
    ..@@@@..
    .@....@.
    ......@.
    ....@@..
    ..@@....
    .@......
    .@@@@@@.
    ........


# [3] DIGIT THREE
0x33:
u+0033:
    ..@@@@..
    .@....@.
    ......@.
    ...@@@..
    ......@.
    .@....@.
    ..@@@@..
    ........


# [4] DIGIT FOUR
0x34:
u+0034:
    .....@..
    ....@@..
    ...@.@..
    ..@..@..
    .@@@@@@.
    .....@..
    .....@..
    ........


# [5] DIGIT FIVE
0x35:
u+0035:
    .@@@@@@.
    .@......
    .@@@@...
    .....@..
    ......@.
    .@...@..
    ..@@@...
    ........


# [6] DIGIT SIX
0x36:
u+0036:
    ...@@@..
    ..@.....
    .@......
    .@@@@@..
    .@....@.
    .@....@.
    ..@@@@..
    ........


# [7] DIGIT SEVEN
0x37:
u+0037:
    .@@@@@@.
    .@....@.
    .....@..
    ....@...
    ...@....
    ...@....
    ...@....
    ........


# [8] DIGIT EIGHT
0x38:
u+0038:
    ..@@@@..
    .@....@.
    .@....@.
    ..@@@@..
    .@....@.
    .@....@.
    ..@@@@..
    ........


# [9] DIGIT NINE
0x39:
u+0039:
    ..@@@@..
    .@....@.
    .@....@.
    ..@@@@@.
    ......@.
    .....@..
    ..@@@...
    ........


# [:] COLON
0x3a:
u+003a:
    ........
    ........
    ....@...
    ........
    ........
    ....@...
    ........
    ........


# [;] SEMICOLON
0x3b:
u+003b:
    ........
    ........
    ....@...
    ........
    ........
    ....@...
    ....@...
    ...@....


# [<] LESS-THAN SIGN
0x3c:
u+003c:
    .....@@.
    ....@@..
    ...@@...
    ..@@....
    ...@@...
    ....@@..
    .....@@.
    ........


# [=] EQUALS SIGN
0x3d:
u+003d:
    ........
    ........
    .@@@@@@.
    ........
    .@@@@@@.
    ........
    ........
    ........


# [>] GREATER-THAN SIGN
0x3e:
u+003e:
    .@@.....
    ..@@....
    ...@@...
    ....@@..
    ...@@...
    ..@@....
    .@@.....
    ........


# [?] QUESTION MARK
0x3f:
u+003f:
    ..@@@@..
    .@....@.
    ......@.
    ....@@..
    ...@....
    ........
    ...@....
    ........


# [@] COMMERCIAL AT
0x40:
u+0040:
    ...@@@..
    ..@...@.
    .@..@.@.
    .@.@.@@.
    .@..@@..
    ..@.....
    ...@@@@.
    ........


# [A] LATIN CAPITAL LETTER A
0x41:
u+0041:
    ...@@...
    ..@..@..
    .@....@.
    .@@@@@@.
    .@....@.
    .@....@.
    .@....@.
    ........


# [B] LATIN CAPITAL LETTER B
0x42:
u+0042:
    .@@@@@..
    ..@...@.
    ..@...@.
    ..@@@@..
    ..@...@.
    ..@...@.
    .@@@@@..
    ........


# [C] LATIN CAPITAL LETTER C
0x43:
u+0043:
    ...@@@..
    ..@...@.
    .@......
    .@......
    .@......
    ..@...@.
    ...@@@..
    ........


# [D] LATIN CAPITAL LETTER D
0x44:
u+0044:
    .@@@@...
    ..@..@..
    ..@...@.
    ..@...@.
    ..@...@.
    ..@..@..
    .@@@@...
    ........


# [E] LATIN CAPITAL LETTER E
0x45:
u+0045:
    .@@@@@@.
    .@......
    .@......
    .@@@@...
    .@......
    .@......
    .@@@@@@.
    ........


# [F] LATIN CAPITAL LETTER F
0x46:
u+0046:
    .@@@@@@.
    .@......
    .@......
    .@@@@...
    .@......
    .@......
    .@......
    ........


# [G] LATIN CAPITAL LETTER G
0x47:
u+0047:
    ...@@@..
    ..@...@.
    .@......
    .@..@@@.
    .@....@.
    ..@...@.
    ...@@@..
    ........


# [H] LATIN CAPITAL LETTER H
0x48:
u+0048:
    .@....@.
    .@....@.
    .@....@.
    .@@@@@@.
    .@....@.
    .@....@.
    .@....@.
    ........


# [I] LATIN CAPITAL LETTER I
0x49:
u+0049:
    ...@@@..
    ....@...
    ....@...
    ....@...
    ....@...
    ....@...
    ...@@@..
    ........


# [J] LATIN CAPITAL LETTER J
0x4a:
u+004a:
    ....@@@.
    .....@..
    .....@..
    .....@..
    .....@..
    .@...@..
    ..@@@...
    ........


# [K] LATIN CAPITAL LETTER K
0x4b:
u+004b:
    .@....@.
    .@...@..
    .@..@...
    .@@@....
    .@..@...
    .@...@..
    .@....@.
    ........


# [L] LATIN CAPITAL LETTER L
0x4c:
u+004c:
    .@......
    .@......
    .@......
    .@......
    .@......
    .@......
    .@@@@@@.
    ........


# [M] LATIN CAPITAL LETTER M
0x4d:
u+004d:
    .@....@.
    .@@..@@.
    .@.@@.@.
    .@.@@.@.
    .@....@.
    .@....@.
    .@....@.
    ........


# [N] LATIN CAPITAL LETTER N
0x4e:
u+004e:
    .@....@.
    .@@...@.
    .@.@..@.
    .@..@.@.
    .@...@@.
    .@....@.
    .@....@.
    ........


# [O] LATIN CAPITAL LETTER O
0x4f:
u+004f:
    ..@@@@..
    .@....@.
    .@....@.
    .@....@.
    .@....@.
    .@....@.
    ..@@@@..
    ........


# [P] LATIN CAPITAL LETTER P
0x50:
u+0050:
    .@@@@@..
    .@....@.
    .@....@.
    .@@@@@..
    .@......
    .@......
    .@......
    ........


# [Q] LATIN CAPITAL LETTER Q
0x51:
u+0051:
    ..@@@@..
    .@....@.
    .@....@.
    .@....@.
    .@..@.@.
    .@...@..
    ..@@@.@.
    ........


# [R] LATIN CAPITAL LETTER R
0x52:
u+0052:
    .@@@@@..
    .@....@.
    .@....@.
    .@@@@@..
    .@..@...
    .@...@..
    .@....@.
    ........


# [S] LATIN CAPITAL LETTER S
0x53:
u+0053:
    ..@@@@..
    .@....@.
    .@......
    ..@@@@..
    ......@.
    .@....@.
    ..@@@@..
    ........


# [T] LATIN CAPITAL LETTER T
0x54:
u+0054:
    ..@@@@@.
    ....@...
    ....@...
    ....@...
    ....@...
    ....@...
    ....@...
    ........


# [U] LATIN CAPITAL LETTER U
0x55:
u+0055:
    .@....@.
    .@....@.
    .@....@.
    .@....@.
    .@....@.
    .@....@.
    ..@@@@..
    ........


# [V] LATIN CAPITAL LETTER V
0x56:
u+0056:
    .@....@.
    .@....@.
    .@....@.
    ..@..@..
    ..@..@..
    ...@@...
    ...@@...
    ........


# [W] LATIN CAPITAL LETTER W
0x57:
u+0057:
    .@....@.
    .@....@.
    .@....@.
    .@.@@.@.
    .@.@@.@.
    .@@..@@.
    .@....@.
    ........


# [X] LATIN CAPITAL LETTER X
0x58:
u+0058:
    .@....@.
    .@....@.
    ..@..@..
    ...@@...
    ..@..@..
    .@....@.
    .@....@.
    ........


# [Y] LATIN CAPITAL LETTER Y
0x59:
u+0059:
    ..@...@.
    ..@...@.
    ..@...@.
    ...@@@..
    ....@...
    ....@...
    ....@...
    ........


# [Z] LATIN CAPITAL LETTER Z
0x5a:
u+005a:
    .@@@@@@.
    ......@.
    .....@..
    ...@@...
    ..@.....
    .@......
    .@@@@@@.
    ........


# [[] LEFT SQUARE BRACKET
0x5b:
u+005b:
    ..@@@@..
    ..@.....
    ..@.....
    ..@.....
    ..@.....
    ..@.....
    ..@@@@..
    ........


# [\] REVERSE SOLIDUS
0x5c:
u+005c:
    ........
    .@......
    ..@.....
    ...@....
    ....@...
    .....@..
    ......@.
    ........


# []] RIGHT SQUARE BRACKET
0x5d:
u+005d:
    ..@@@@..
    .....@..
    .....@..
    .....@..
    .....@..
    .....@..
    ..@@@@..
    ........


# [^] CIRCUMFLEX ACCENT
0x5e:
u+005e:
    ....@...
    ...@.@..
    ..@...@.
    ........
    ........
    ........
    ........
    ........


# [_] LOW LINE
0x5f:
u+005f:
    ........
    ........
    ........
    ........
    ........
    ........
    ........
    @@@@@@@@


# [`] GRAVE ACCENT
0x60:
u+0060:
    ...@....
    ....@...
    .....@..
    ........
    ........
    ........
    ........
    ........


# [a] LATIN SMALL LETTER A
0x61:
u+0061:
    ........
    ........
    ..@@@...
    .....@..
    ..@@@@..
    .@...@..
    ..@@@.@.
    ........


# [b] LATIN SMALL LETTER B
0x62:
u+0062:
    .@......
    .@......
    .@.@@@..
    .@@...@.
    .@....@.
    .@@...@.
    .@.@@@..
    ........


# [c] LATIN SMALL LETTER C
0x63:
u+0063:
    ........
    ........
    ..@@@@..
    .@....@.
    .@......
    .@....@.
    ..@@@@..
    ........


# [d] LATIN SMALL LETTER D
0x64:
u+0064:
    ......@.
    ......@.
    ..@@@.@.
    .@...@@.
    .@....@.
    .@...@@.
    ..@@@.@.
    ........


# [e] LATIN SMALL LETTER E
0x65:
u+0065:
    ........
    ........
    ..@@@@..
    .@....@.
    .@@@@@@.
    .@......
    ..@@@@..
    ........


# [f] LATIN SMALL LETTER F
0x66:
u+0066:
    ....@@..
    ...@..@.
    ...@....
    .@@@@@..
    ...@....
    ...@....
    ...@....
    ........


# [g] LATIN SMALL LETTER G
0x67:
u+0067:
    ........
    ........
    ..@@@.@.
    .@...@@.
    .@...@@.
    ..@@@.@.
    ......@.
    ..@@@@..


# [h] LATIN SMALL LETTER H
0x68:
u+0068:
    .@......
    .@......
    .@.@@@..
    .@@...@.
    .@....@.
    .@....@.
    .@....@.
    ........


# [i] LATIN SMALL LETTER I
0x69:
u+0069:
    ....@...
    ........
    ...@@...
    ....@...
    ....@...
    ....@...
    ...@@@..
    ........


# [j] LATIN SMALL LETTER J
0x6a:
u+006a:
    .....@..
    ........
    ....@@..
    .....@..
    .....@..
    .....@..
    .@...@..
    ..@@@...


# [k] LATIN SMALL LETTER K
0x6b:
u+006b:
    .@......
    .@......
    .@...@..
    .@..@...
    .@.@....
    .@@.@...
    .@...@..
    ........


# [l] LATIN SMALL LETTER L
0x6c:
u+006c:
    ...@@...
    ....@...
    ....@...
    ....@...
    ....@...
    ....@...
    ...@@@..
    ........


# [m] LATIN SMALL LETTER M
0x6d:
u+006d:
    ........
    ........
    .@@@.@@.
    .@..@..@
    .@..@..@
    .@..@..@
    .@..@..@
    ........


# [n] LATIN SMALL LETTER N
0x6e:
u+006e:
    ........
    ........
    .@.@@@..
    .@@...@.
    .@....@.
    .@....@.
    .@....@.
    ........


# [o] LATIN SMALL LETTER O
0x6f:
u+006f:
    ........
    ........
    ..@@@@..
    .@....@.
    .@....@.
    .@....@.
    ..@@@@..
    ........


# [p] LATIN SMALL LETTER P
0x70:
u+0070:
    ........
    ........
    .@.@@@..
    .@@...@.
    .@@...@.
    .@.@@@..
    .@......
    .@......


# [q] LATIN SMALL LETTER Q
0x71:
u+0071:
    ........
    ........
    ..@@@.@.
    .@...@@.
    .@...@@.
    ..@@@.@.
    ......@.
    ......@.


# [r] LATIN SMALL LETTER R
0x72:
u+0072:
    ........
    ........
    .@.@@@..
    .@@...@.
    .@......
    .@......
    .@......
    ........


# [s] LATIN SMALL LETTER S
0x73:
u+0073:
    ........
    ........
    ..@@@@@.
    .@......
    ..@@@@..
    ......@.
    .@@@@@..
    ........


# [t] LATIN SMALL LETTER T
0x74:
u+0074:
    ...@....
    ...@....
    .@@@@@..
    ...@....
    ...@....
    ...@..@.
    ....@@..
    ........


# [u] LATIN SMALL LETTER U
0x75:
u+0075:
    ........
    ........
    .@....@.
    .@....@.
    .@....@.
    .@...@@.
    ..@@@.@.
    ........


# [v] LATIN SMALL LETTER V
0x76:
u+0076:
    ........
    ........
    .@....@.
    .@....@.
    .@....@.
    ..@..@..
    ...@@...
    ........


# [w] LATIN SMALL LETTER W
0x77:
u+0077:
    ........
    ........
    .@.....@
    .@..@..@
    .@..@..@
    .@..@..@
    ..@@.@@.
    ........


# [x] LATIN SMALL LETTER X
0x78:
u+0078:
    ........
    ........
    .@....@.
    ..@..@..
    ...@@...
    ..@..@..
    .@....@.
    ........


# [y] LATIN SMALL LETTER Y
0x79:
u+0079:
    ........
    ........
    .@....@.
    .@....@.
    .@...@@.
    ..@@@.@.
    ......@.
    ..@@@@..


# [z] LATIN SMALL LETTER Z
0x7a:
u+007a:
    ........
    ........
    .@@@@@@.
    .....@..
    ...@@...
    ..@.....
    .@@@@@@.
    ........


# [{] LEFT CURLY BRACKET
0x7b:
u+007b:
    ....@@..
    ...@....
    ...@....
    ..@.....
    ...@....
    ...@....
    ....@@..
    ........


# [¦] BROKEN BAR
0x7c:
u+00a6:
    ....@...
    ....@...
    ....@...
    ........
    ....@...
    ....@...
    ....@...
    ........


# [}] RIGHT CURLY BRACKET
0x7d:
u+007d:
    ..@@....
    ....@...
    ....@...
    .....@..
    ....@...
    ....@...
    ..@@....
    ........


# [~] TILDE
0x7e:
u+007e:
    ..@@....
    .@..@..@
    .....@@.
    ........
    ........
    ........
    ........
    ........


# [±] PLUS-MINUS SIGN
0x7f:
u+00b1:
    ....@...
    ....@...
    ..@@@@@.
    ....@...
    ....@...
    ........
    ..@@@@@.
    ........


# [♠] BLACK SPADE SUIT
0x80:
u+2660:
    ....@...
    ...@@@..
    ..@@@@@.
    .@@@@@@@
    .@@@@@@@
    ..@@@@@.
    ....@...
    ....@...


# [♥] BLACK HEART SUIT
0x81:
u+2665:
    ........
    ..@@.@@.
    .@@@@@@@
    .@@@@@@@
    ..@@@@@.
    ...@@@..
    ....@...
    ........


# [♦] BLACK DIAMOND SUIT
0x82:
u+2666:
    ....@...
    ...@@@..
    ..@@@@@.
    .@@@@@@@
    ..@@@@@.
    ...@@@..
    ....@...
    ........


# [♣] BLACK CLUB SUIT
0x83:
u+2663:
    ...@@@..
    ...@@@..
    ....@...
    .@@.@.@@
    .@@@@@@@
    .@@.@.@@
    ....@...
    ...@@@..


# [☺] WHITE SMILING FACE
0x84:
u+263a:
    ..@@@@..
    .@....@.
    @.@..@.@
    @......@
    @.@..@.@
    @..@@..@
    .@....@.
    ..@@@@..


# [☹] WHITE FROWNING FACE
0x85:
u+2639:
    ..@@@@..
    .@....@.
    @.@..@.@
    @......@
    @..@@..@
    @.@..@.@
    .@....@.
    ..@@@@..


# [≤] LESS-THAN OR EQUAL TO
0x86:
u+2264:
    .....@..
    ....@...
    ...@....
    ..@.....
    ...@....
    ....@...
    .....@..
    ..@@@@..


# [≥] GREATER-THAN OR EQUAL TO
0x87:
u+2265:
    ..@.....
    ...@....
    ....@...
    .....@..
    ....@...
    ...@....
    ..@.....
    ..@@@@..


# [α] GREEK SMALL LETTER ALPHA
0x88:
u+03b1:
    ........
    ........
    ..@@@..@
    .@...@@.
    .@...@@.
    ..@@@..@
    ........
    ........


# [β] GREEK SMALL LETTER BETA
0x89:
u+03b2:
    ..@@@@..
    ..@...@.
    ..@@@@..
    ..@...@.
    ..@...@.
    ..@@@@..
    ..@.....
    .@......


# [γ] GREEK SMALL LETTER GAMMA
0x8a:
u+03b3:
    .@@....@
    ...@..@.
    ...@.@..
    ...@@...
    ...@....
    ..@@....
    ..@@....
    ........


# [δ] GREEK SMALL LETTER DELTA
0x8b:
u+03b4:
    ....@@..
    ...@..@.
    ...@....
    ....@@..
    ....@.@.
    ...@..@.
    ....@@..
    ........


# [ε] GREEK SMALL LETTER EPSILON
0x8c:
u+03b5:
    .....@@.
    ....@...
    ...@....
    ..@@@@@.
    ...@....
    ....@...
    .....@@.
    ........


# [ζ] GREEK SMALL LETTER ZETA
0x8d:
u+03b6:
    ...@.@@.
    .....@@.
    ....@...
    ...@....
    ...@@@..
    ......@.
    ....@@..
    ........


# [η] GREEK SMALL LETTER ETA
0x8e:
u+03b7:
    ..@.@@..
    .@.@..@.
    ...@..@.
    ...@..@.
    ......@.
    ......@.
    ......@.
    ........


# [θ] GREEK SMALL LETTER THETA
0x8f:
u+03b8:
    ....@...
    ...@.@..
    ..@...@.
    ..@@@@@.
    ..@...@.
    ...@.@..
    ....@...
    ........


# [ι] GREEK SMALL LETTER IOTA
0x90:
u+03b9:
    ........
    ..@.....
    ..@.....
    ..@.....
    ..@...@.
    ..@...@.
    ...@@@..
    ........


# [κ] GREEK SMALL LETTER KAPPA
0x91:
u+03ba:
    .@......
    .@..@...
    .@.@....
    .@@.....
    .@.@....
    .@..@.@.
    .@...@..
    ........


# [λ] GREEK SMALL LETTER LAMDA
0x92:
u+03bb:
    ..@.....
    ...@....
    ...@....
    ...@....
    ...@@...
    ..@..@..
    .@....@.
    ........


# [μ] GREEK SMALL LETTER MU
0x93:
u+03bc:
    ..@..@..
    ..@..@..
    ..@..@..
    ..@..@..
    ..@@@.@.
    ..@.....
    ..@.....
    ........


# [ν] GREEK SMALL LETTER NU
0x94:
u+03bd:
    ........
    ........
    ..@@..@.
    ...@..@.
    ...@.@..
    ...@@...
    ...@....
    ........


# [ξ] GREEK SMALL LETTER XI
0x95:
u+03be:
    ....@...
    ...@@@..
    ..@.....
    ...@@...
    ..@.....
    ...@@@..
    ......@.
    ....@@..


# [ο] GREEK SMALL LETTER OMICRON
0x96:
u+03bf:
    ........
    ...@@...
    ..@..@..
    .@....@.
    .@....@.
    ..@..@..
    ...@@...
    ........


# [π] GREEK SMALL LETTER PI
0x97:
u+03c0:
    ........
    ........
    ..@@@@@.
    .@.@.@..
    ...@.@..
    ...@.@..
    ...@.@..
    ........


# [ρ] GREEK SMALL LETTER RHO
0x98:
u+03c1:
    ........
    ...@@...
    ..@..@..
    ..@..@..
    ..@@@...
    ..@.....
    ..@.....
    ........


# [σ] GREEK SMALL LETTER SIGMA
0x99:
u+03c3:
    ........
    ........
    ..@@@@@.
    .@..@...
    .@..@...
    ..@@....
    ........
    ........


# [τ] GREEK SMALL LETTER TAU
0x9a:
u+03c4:
    ........
    ........
    ..@@@@@.
    .@..@...
    ....@...
    ....@...
    ....@...
    ....@...


# [υ] GREEK SMALL LETTER UPSILON
0x9b:
u+03c5:
    ........
    ......@.
    .@@..@..
    ..@..@..
    ..@..@..
    ..@..@..
    ...@@...
    ........


# [φ] GREEK SMALL LETTER PHI
0x9c:
u+03c6:
    ....@...
    ...@@@..
    ..@.@.@.
    ..@.@.@.
    ..@.@.@.
    ...@@@..
    ....@...
    ........


# [χ] GREEK SMALL LETTER CHI
0x9d:
u+03c7:
    ........
    ........
    .@@...@.
    ...@.@..
    ....@...
    ...@.@..
    ..@...@@
    ........


# [ψ] GREEK SMALL LETTER PSI
0x9e:
u+03c8:
    .@..@..@
    ..@.@.@.
    ..@.@.@.
    ...@@@..
    ....@...
    ....@...
    ....@...
    ........


# [ω] GREEK SMALL LETTER OMEGA
0x9f:
u+03c9:
    ........
    ........
    ..@...@.
    .@.....@
    .@..@..@
    .@..@..@
    ..@@.@@.
    ........


# [Ω] GREEK CAPITAL LETTER OMEGA
0xa0:
u+03a9:
    ...@@@..
    ..@...@.
    .@.....@
    .@.....@
    .@@...@@
    ..@...@.
    .@@...@@
    ........


# [√] SQUARE ROOT
0xa1:
u+221a:
    ...@@@@.
    ...@....
    ...@....
    ...@....
    .@.@....
    ..@@....
    ...@....
    ........


# [÷] DIVISION SIGN
0xa2:
u+00f7:
    ........
    ....@...
    ........
    ..@@@@@.
    ........
    ....@...
    ........
    ........


# [∑] N-ARY SUMMATION
0xa3:
u+2211:
    .@@@@@@.
    ..@.....
    ...@....
    ....@@..
    ...@....
    ..@.....
    .@@@@@@.
    ........


# [≈] ALMOST EQUAL TO
0xa4:
u+2248:
    ........
    ..@@..@.
    .@..@@..
    ........
    ..@@..@.
    .@..@@..
    ........
    ........


# [∆] INCREMENT
0xa5:
u+2206:
    ........
    ........
    ....@...
    ...@.@..
    ..@...@.
    .@@@@@@@
    ........
    ........


# [⌇] WAVY LINE
0xa6:
u+2307:
    .....@..
    ....@...
    ...@....
    ...@....
    ....@...
    ....@...
    ...@....
    ..@.....


# [≠] NOT EQUAL TO
0xa7:
u+2260:
    .......@
    ......@.
    .@@@@@@@
    ....@...
    .@@@@@@@
    ..@.....
    .@......
    ........


# [⌁] ELECTRIC ARROW
0xa8:
u+2301:
    ...@....
    ....@...
    .....@..
    ..@@@@@.
    ...@....
    ....@...
    .....@..
    ........


# [%] PERCENT SIGN
0xa9:
u+0025:
    ..@@@@@@
    .@.@..@.
    ..@..@..
    ....@...
    ...@..@.
    ..@..@.@
    .@....@.
    ........


# [⍾] BELL SYMBOL
0xaa:
u+237e:
    ...@@@..
    ..@...@.
    .@.....@
    .@.....@
    .@@@@@@@
    ..@...@.
    ..@...@.
    .@@...@@


# [∞] INFINITY
0xab:
u+221e:
    ........
    ........
    ..@@.@@.
    .@..@..@
    .@..@..@
    ..@@.@@.
    ........
    ........


# [✓] CHECK MARK
0xac:
u+2713:
    ........
    ......@.
    .....@..
    .@..@...
    .@.@....
    .@@.....
    .@......
    ........


# [§] SECTION SIGN
0xad:
u+00a7:
    ...@@@@.
    ..@.....
    ...@@@..
    ..@...@.
    ...@@@..
    ......@.
    ..@@@@..
    ........

0xae:
u+ffbcc:
    ..@...@.
    .@.@.@.@
    ..@.@.@.
    ...@.@..
    ..@.@.@.
    .@.@.@.@
    ..@...@.
    ........


# [©] COPYRIGHT SIGN
0xaf:
u+00a9:
    ..@@@@..
    .@....@.
    @..@@@.@
    @.@....@
    @.@....@
    @..@@@.@
    .@....@.
    ..@@@@..


# [¤] CURRENCY SIGN
0xb0:
u+00a4:
    .@....@.
    ..@..@..
    ...@@...
    ..@..@..
    ...@@...
    ..@..@..
    .@....@.
    ........


# [¶] PILCROW SIGN
0xb1:
u+00b6:
    ..@@@@@.
    .@..@.@.
    .@..@.@.
    ..@@@.@.
    ....@.@.
    ....@.@.
    ....@.@.
    ....@.@.


# [¢] CENT SIGN
0xb2:
u+00a2:
    ....@...
    ...@@@..
    ..@.@.@.
    ..@.@...
    ..@.@.@.
    ...@@@..
    ....@...
    ........


# [®] REGISTERED SIGN
0xb3:
u+00ae:
    ..@@@@..
    .@@@@.@.
    @.@..@.@
    @.@..@.@
    @.@@@..@
    @.@.@..@
    .@@..@@.
    ..@@@@..


# [🯁] LEFT THIRD WHITE RIGHT POINTING INDEX
0xb4:
u+1fbc1:
    .@.@@@@@
    .@@.....
    .@@...@@
    .@@...@.
    .@@..@..
    .@@@@.@@
    .@@.....
    .@.@@@@@


# [🯂] MIDDLE THIRD WHITE RIGHT POINTING INDEX
0xb5:
u+1fbc2:
    @@@@@@@@
    .....@..
    ......@@
    @@@@@@..
    ......@.
    @@@@@@..
    .....@..
    @@@@@...


# [🯃] RIGHT THIRD WHITE RIGHT POINTING INDEX
0xb6:
u+1fbc3:
    @@@@@@..
    ......@.
    @@@@@@..
    ........
    ........
    ........
    ........
    ........


# [℞] PRESCRIPTION TAKE
0xb7:
u+211e:
    .@@@@...
    .@...@..
    .@...@..
    .@@@@...
    .@..@.@.
    .@...@..
    .@..@.@@
    ........


# [℅] CARE OF
0xb8:
u+2105:
    .@@....@
    @.....@.
    @....@..
    .@@.@...
    ...@.@@.
    ..@.@..@
    .@..@..@
    @....@@.


# [♂] MALE SIGN
0xb9:
u+2642:
    ....@@@.
    .....@@.
    ....@.@.
    .@@@....
    @..@....
    @..@....
    .@@.....
    ........


# [♀] FEMALE SIGN
0xba:
u+2640:
    ...@@@..
    ..@...@.
    ..@...@.
    ..@...@.
    ...@@@..
    ....@...
    ...@@@..
    ....@...

0xbb:
u+ffbd6:
    ....@@@.
    ....@...
    ....@...
    ....@@@.
    ........
    ........
    ........
    ........


# [🯄] NEGATIVE SQUARED QUESTION MARK
0xbc:
u+1fbc4:
    @@@@@@@@
    @@@...@@
    @@.@@@.@
    @@@@..@@
    @@@@.@@@
    @@@@@@@@
    @@@@.@@@
    @@@@@@@@


# [🯅] STICK FIGURE
0xbd:
u+1fbc5:
    ....@...
    ...@.@..
    ....@...
    ...@@@..
    ..@.@.@.
    ....@...
    ...@.@..
    ..@...@.


# [🯉] STICK FIGURE WITH DRESS
0xbe:
u+1fbc9:
    ....@...
    ...@.@..
    ....@...
    ...@@@..
    ..@.@.@.
    ...@.@..
    ..@@@@@.
    ...@.@..


# [🯊] WHITE UP-POINTING CHEVRON
0xbf:
u+1fbca:
    ....@...
    ...@.@..
    ..@...@.
    ..@...@.
    ..@...@.
    ..@.@.@.
    ..@@.@@.
    ..@...@.


# [¥] YEN SIGN
0xc0:
u+00a5:
    ..@...@.
    ...@.@..
    ....@...
    ..@@@@@.
    ....@...
    ..@@@@@.
    ....@...
    ........


# [｡] HALFWIDTH IDEOGRAPHIC FULL STOP
0xc1:
u+ff61:
    ........
    ........
    ........
    ........
    ..@.....
    .@.@....
    ..@.....
    ........


# [｢] HALFWIDTH LEFT CORNER BRACKET
0xc2:
u+ff62:
    ...@@@..
    ...@....
    ...@....
    ...@....
    ........
    ........
    ........
    ........


# [｣] HALFWIDTH RIGHT CORNER BRACKET
0xc3:
u+ff63:
    ........
    ........
    ........
    .....@..
    .....@..
    .....@..
    ...@@@..
    ........


# [､] HALFWIDTH IDEOGRAPHIC COMMA
0xc4:
u+ff64:
    ........
    ........
    ........
    ........
    ........
    ..@.....
    ...@....
    ........


# [･] HALFWIDTH KATAKANA MIDDLE DOT
0xc5:
u+ff65:
    ........
    ........
    ........
    ...@@...
    ...@@...
    ........
    ........
    ........


# [ｦ] HALFWIDTH KATAKANA LETTER WO
0xc6:
u+ff66:
    ........
    .@@@@@@.
    ......@.
    .@@@@@@.
    ......@.
    .....@..
    ....@...
    ........


# [ｧ] HALFWIDTH KATAKANA LETTER SMALL A
0xc7:
u+ff67:
    ........
    ........
    ..@@@@@.
    ......@.
    ....@@..
    ....@...
    ...@....
    ........


# [ｨ] HALFWIDTH KATAKANA LETTER SMALL I
0xc8:
u+ff68:
    ........
    ........
    ......@.
    .....@..
    ....@@..
    ...@.@..
    .....@..
    ........


# [ｩ] HALFWIDTH KATAKANA LETTER SMALL U
0xc9:
u+ff69:
    ........
    ........
    ....@...
    ..@@@@@.
    ..@...@.
    .....@..
    ....@...
    ........


# [ｪ] HALFWIDTH KATAKANA LETTER SMALL E
0xca:
u+ff6a:
    ........
    ........
    ........
    ..@@@@@.
    ....@...
    ....@...
    ..@@@@@.
    ........


# [ｫ] HALFWIDTH KATAKANA LETTER SMALL O
0xcb:
u+ff6b:
    ........
    ........
    .....@..
    ..@@@@@.
    ....@@..
    ...@.@..
    ..@..@..
    ........


# [ｬ] HALFWIDTH KATAKANA LETTER SMALL YA
0xcc:
u+ff6c:
    ........
    ........
    ...@....
    ..@@@@@.
    ...@..@.
    ...@.@..
    ...@....
    ........


# [ｭ] HALFWIDTH KATAKANA LETTER SMALL YU
0xcd:
u+ff6d:
    ........
    ........
    ........
    ...@@@..
    .....@..
    .....@..
    ..@@@@@.
    ........


# [ｮ] HALFWIDTH KATAKANA LETTER SMALL YO
0xce:
u+ff6e:
    ........
    ........
    ..@@@@..
    .....@..
    ...@@@..
    .....@..
    ..@@@@..
    ........


# [ｯ] HALFWIDTH KATAKANA LETTER SMALL TU
0xcf:
u+ff6f:
    ........
    ........
    ........
    ..@.@.@.
    ..@.@.@.
    ......@.
    ....@@..
    ........


# [ｰ] HALFWIDTH KATAKANA-HIRAGANA PROLONGED SOUND MARK
0xd0:
u+ff70:
    ........
    ........
    ........
    ..@@@@@.
    ........
    ........
    ........
    ........


# [ｱ] HALFWIDTH KATAKANA LETTER A
0xd1:
u+ff71:
    ........
    .@@@@@@.
    ......@.
    ...@.@@.
    ...@@...
    ...@....
    ..@.....
    ........


# [ｲ] HALFWIDTH KATAKANA LETTER I
0xd2:
u+ff72:
    ......@.
    .....@..
    ....@...
    ...@@...
    ..@.@...
    .@..@...
    ....@...
    ........


# [ｳ] HALFWIDTH KATAKANA LETTER U
0xd3:
u+ff73:
    ...@....
    .@@@@@@.
    .@....@.
    ......@.
    ......@.
    .....@..
    ....@...
    ........


# [ｴ] HALFWIDTH KATAKANA LETTER E
0xd4:
u+ff74:
    ........
    ..@@@@@.
    ....@...
    ....@...
    ....@...
    ....@...
    ..@@@@@.
    ........


# [ｵ] HALFWIDTH KATAKANA LETTER O
0xd5:
u+ff75:
    .....@..
    .@@@@@@.
    ....@@..
    ...@.@..
    ..@..@..
    .@...@..
    .....@..
    ........


# [ｶ] HALFWIDTH KATAKANA LETTER KA
0xd6:
u+ff76:
    ...@....
    .@@@@@@.
    ...@..@.
    ...@..@.
    ...@..@.
    ..@...@.
    .@...@..
    ........


# [ｷ] HALFWIDTH KATAKANA LETTER KI
0xd7:
u+ff77:
    ....@...
    .@@@@@@@
    ....@...
    .@@@@@@@
    ....@...
    ....@...
    ....@...
    ........


# [ｸ] HALFWIDTH KATAKANA LETTER KU
0xd8:
u+ff78:
    ..@.....
    ..@@@@@.
    ..@...@.
    .@....@.
    .....@..
    ....@...
    ...@....
    ........


# [ｹ] HALFWIDTH KATAKANA LETTER KE
0xd9:
u+ff79:
    ..@.....
    ..@@@@@.
    .@..@...
    ....@...
    ....@...
    ....@...
    ...@....
    ........


# [ｺ] HALFWIDTH KATAKANA LETTER KO
0xda:
u+ff7a:
    ........
    .@@@@@@.
    ......@.
    ......@.
    ......@.
    ......@.
    .@@@@@@.
    ........


# [ｻ] HALFWIDTH KATAKANA LETTER SA
0xdb:
u+ff7b:
    ..@..@..
    .@@@@@@.
    ..@..@..
    ..@..@..
    .....@..
    ....@...
    ...@....
    ........


# [ｼ] HALFWIDTH KATAKANA LETTER SI
0xdc:
u+ff7c:
    ........
    .@@.....
    ......@.
    .@@...@.
    ......@.
    .....@..
    ..@@@...
    ........


# [ｽ] HALFWIDTH KATAKANA LETTER SU
0xdd:
u+ff7d:
    ........
    ..@@@@@.
    ......@.
    .....@..
    ....@...
    ...@.@..
    ..@...@.
    ........


# [ｾ] HALFWIDTH KATAKANA LETTER SE
0xde:
u+ff7e:
    ...@....
    .@@@@@@.
    ...@...@
    ...@..@.
    ...@....
    ...@....
    ....@@@.
    ........


# [ｿ] HALFWIDTH KATAKANA LETTER SO
0xdf:
u+ff7f:
    ........
    .@....@.
    ..@...@.
    ......@.
    .....@..
    ....@...
    ...@....
    ........


# [ﾀ] HALFWIDTH KATAKANA LETTER TA
0xe0:
u+ff80:
    ..@.....
    ..@@@@@.
    ..@...@.
    .@.@..@.
    ....@@..
    ....@...
    ...@....
    ........


# [ﾁ] HALFWIDTH KATAKANA LETTER TI
0xe1:
u+ff81:
    .....@..
    ..@@@...
    ....@...
    .@@@@@@.
    ....@...
    ....@...
    ...@....
    ........


# [ﾂ] HALFWIDTH KATAKANA LETTER TU
0xe2:
u+ff82:
    ........
    .@.@..@.
    .@.@..@.
    .@.@..@.
    ......@.
    .....@..
    ....@...
    ........


# [ﾃ] HALFWIDTH KATAKANA LETTER TE
0xe3:
u+ff83:
    ........
    ..@@@@..
    ........
    .@@@@@@.
    ....@...
    ....@...
    ...@....
    ........


# [ﾄ] HALFWIDTH KATAKANA LETTER TO
0xe4:
u+ff84:
    ...@....
    ...@....
    ...@....
    ...@@...
    ...@.@..
    ...@..@.
    ...@....
    ........


# [ﾅ] HALFWIDTH KATAKANA LETTER NA
0xe5:
u+ff85:
    ....@...
    ....@...
    .@@@@@@.
    ....@...
    ....@...
    ....@...
    ...@....
    ........


# [ﾆ] HALFWIDTH KATAKANA LETTER NI
0xe6:
u+ff86:
    ........
    ..@@@@..
    ........
    ........
    ........
    ........
    .@@@@@@.
    ........


# [ﾇ] HALFWIDTH KATAKANA LETTER NU
0xe7:
u+ff87:
    ........
    ..@@@@@.
    ......@.
    ...@.@..
    ....@...
    ...@.@..
    ..@...@.
    ........


# [ﾈ] HALFWIDTH KATAKANA LETTER NE
0xe8:
u+ff88:
    ...@....
    .@@@@@@.
    .....@..
    ....@...
    ...@.@..
    ..@@..@.
    .@.@....
    ........


# [ﾉ] HALFWIDTH KATAKANA LETTER NO
0xe9:
u+ff89:
    ....@...
    ....@...
    ....@...
    ....@...
    ....@...
    ...@....
    ..@.....
    ........


# [ﾊ] HALFWIDTH KATAKANA LETTER HA
0xea:
u+ff8a:
    ........
    ...@....
    ....@...
    .@...@..
    .@....@.
    .@....@.
    .@....@.
    ........


# [ﾋ] HALFWIDTH KATAKANA LETTER HI
0xeb:
u+ff8b:
    .@......
    .@......
    .@@@@@@.
    .@......
    .@......
    .@......
    ..@@@@@.
    ........


# [ﾌ] HALFWIDTH KATAKANA LETTER HU
0xec:
u+ff8c:
    .@@@@@@.
    ......@.
    ......@.
    ......@.
    ......@.
    .....@..
    ...@@...
    ........


# [ﾍ] HALFWIDTH KATAKANA LETTER HE
0xed:
u+ff8d:
    ........
    ...@....
    ..@.@...
    .@...@..
    ......@.
    .......@
    .......@
    ........


# [ﾎ] HALFWIDTH KATAKANA LETTER HO
0xee:
u+ff8e:
    ....@...
    .@@@@@@@
    ....@...
    ....@...
    .@..@..@
    .@..@..@
    ....@...
    ........


# [ﾏ] HALFWIDTH KATAKANA LETTER MA
0xef:
u+ff8f:
    .@@@@@@.
    ......@.
    ......@.
    ..@..@..
    ...@@...
    ....@...
    .....@..
    ........


# [ﾐ] HALFWIDTH KATAKANA LETTER MI
0xf0:
u+ff90:
    .@......
    ..@@@@..
    ........
    ..@@@@..
    ........
    .@@@@@..
    ......@.
    ........


# [ﾑ] HALFWIDTH KATAKANA LETTER MU
0xf1:
u+ff91:
    ....@...
    ...@....
    ..@.....
    .@......
    .@....@.
    .@@@@@@.
    ......@.
    ........


# [ﾒ] HALFWIDTH KATAKANA LETTER ME
0xf2:
u+ff92:
    ......@.
    ......@.
    ...@.@..
    ....@...
    ...@.@..
    ..@.....
    .@......
    ........


# [ﾓ] HALFWIDTH KATAKANA LETTER MO
0xf3:
u+ff93:
    ........
    .@@@@@@.
    ...@....
    .@@@@@@.
    ...@....
    ...@....
    ....@@@.
    ........


# [ﾔ] HALFWIDTH KATAKANA LETTER YA
0xf4:
u+ff94:
    ...@....
    ...@....
    .@@@@@@.
    ...@..@.
    ...@.@..
    ...@....
    ...@....
    ........


# [ﾕ] HALFWIDTH KATAKANA LETTER YU
0xf5:
u+ff95:
    ........
    ..@@@@..
    .....@..
    .....@..
    .....@..
    .....@..
    .@@@@@@@
    ........


# [ﾖ] HALFWIDTH KATAKANA LETTER YO
0xf6:
u+ff96:
    ..@@@@@.
    ......@.
    ......@.
    ..@@@@@.
    ......@.
    ......@.
    ..@@@@@.
    ........


# [ﾗ] HALFWIDTH KATAKANA LETTER RA
0xf7:
u+ff97:
    ..@@@@..
    ........
    .@@@@@@.
    ......@.
    ......@.
    .....@..
    ....@...
    ........


# [ﾘ] HALFWIDTH KATAKANA LETTER RI
0xf8:
u+ff98:
    .@...@..
    .@...@..
    .@...@..
    .@...@..
    .....@..
    ....@...
    ...@....
    ........


# [ﾙ] HALFWIDTH KATAKANA LETTER RU
0xf9:
u+ff99:
    ...@....
    .@.@....
    .@.@....
    .@.@....
    .@.@..@.
    .@.@.@..
    .@.@@...
    ........


# [ﾚ] HALFWIDTH KATAKANA LETTER RE
0xfa:
u+ff9a:
    .@......
    .@......
    .@......
    .@...@..
    .@..@...
    .@.@....
    .@@.....
    ........


# [ﾛ] HALFWIDTH KATAKANA LETTER RO
0xfb:
u+ff9b:
    ........
    .@@@@@@.
    .@....@.
    .@....@.
    .@....@.
    .@....@.
    .@@@@@@.
    ........


# [ﾜ] HALFWIDTH KATAKANA LETTER WA
0xfc:
u+ff9c:
    ........
    .@@@@@@.
    .@....@.
    .@....@.
    ......@.
    .....@..
    ....@...
    ........


# [ﾝ] HALFWIDTH KATAKANA LETTER N
0xfd:
u+ff9d:
    ........
    .@@.....
    ........
    ......@.
    ......@.
    .....@..
    .@@@@...
    ........


# [ﾞ] HALFWIDTH KATAKANA VOICED SOUND MARK
0xfe:
u+ff9e:
    ...@....
    .@..@...
    ..@.....
    ........
    ........
    ........
    ........
    ........


# [ﾟ] HALFWIDTH KATAKANA SEMI-VOICED SOUND MARK
0xff:
u+ff9f:
    ..@.....
    .@.@....
    ..@.....
    ........
    ........
    ........
    ........
    ........

